<svg xmlns="http://www.w3.org/2000/svg" width="1525" height="87.987" viewBox="0 0 1525 87.987">
  <g id="Group_26" data-name="Group 26" transform="translate(-204.5 -208.601)">
    <line id="Line_98" data-name="Line 98" x2="662" transform="translate(204.5 261.5)" fill="none" stroke="#3d3d3d" stroke-width="4"/>
    <line id="Line_100" data-name="Line 100" x2="662" transform="translate(1067.5 261.5)" fill="none" stroke="#3d3d3d" stroke-width="4"/>
    <path id="Path_27" data-name="Path 27" d="M1675.209-294.07v1.837l.46,1.434,1.652,1.749,1.341,1.138h3.445l1.041-1.138v-1.085l1.9-2.1,5.361-5.647,7.357-7.759,9.579-9.773,11.316-11.458,13.242,13.67,12.682,12.469,7.294,7.507,1.945,2.845v1.208l.895.645,1.784.464,1.807-.464,2.093-1.853,1.058-1.96v-1.728l-.5-1.64-1.308-.466h-.936l-20.284-19.238-16.2-16.192,1.94-.952.42-1.386-.42-1.014,9.058-8.543,3.131-.984h3.983l4.078-1.583,18.329-21.3L1742.379-348.1l-.715-.818,19.326-20.488-21.25,19.088-.748-.656,19.913-20.1-11.593,11.159-9.244,8.944v-1.42l18.992-20.471-20.694,18.625-.843-.625,19.422-20.159-20.7,17.944-1.937,2.428-.4,2.884-.451,3.405-.738,2.742-8.928,9.153h-1.552l-.8.748-.394,1.191-1.041-.818-1.086.388v-1.51l-1.721-.709-.544-.382-9.255-9.893-.358-7.2-1.163-3.04-3.081-4.79-4.825-5.358-5.183-3.484-5.039-2.214h-4.114l-3.7.9-2.378,3.2v3.571l1.331,5.569,3.949,6.2,5.651,5.185,5.011,3.3,5.693.963,5.016-.619,2.069,1.776,8.084,8.154v1.4l.508,1.386,1.439.416v.918l-18.529,18.694-13.67,13.686-4.786,3.823h-.957Z" transform="translate(-751 584)" fill="#3d3d3d" stroke="#3d3d3d" stroke-width="1"/>
  </g>
</svg>
