<?xml version="1.0" standalone="no"?>
<!DOCTYPE svg PUBLIC "-//W3C//DTD SVG 20010904//EN"
 "http://www.w3.org/TR/2001/REC-SVG-20010904/DTD/svg10.dtd">
<svg version="1.0" xmlns="http://www.w3.org/2000/svg"
 width="260.000000pt" height="260.000000pt" viewBox="0 0 260.000000 260.000000"
 preserveAspectRatio="xMidYMid meet">
<metadata>
Created by potrace 1.11, written by Peter Selinger 2001-2013
</metadata>
<g transform="translate(0.000000,260.000000) scale(0.100000,-0.100000)"
fill="#000000" stroke="none">
<path d="M1239 2261 c-20 -20 -29 -39 -29 -61 0 -40 47 -90 85 -90 38 0 85 50
85 90 0 40 -47 90 -85 90 -16 0 -38 -12 -56 -29z m96 -16 c14 -13 25 -33 25
-45 0 -26 -43 -70 -69 -70 -23 0 -61 44 -61 72 0 23 43 68 65 68 9 0 27 -11
40 -25z"/>
<path d="M244 2208 c-3 -5 -4 -9 -2 -9 2 -1 207 -2 456 -3 307 -1 451 2 449 9
-4 12 -896 15 -903 3z"/>
<path d="M1444 2208 c-3 -4 -4 -9 -2 -9 15 -6 900 -3 904 3 3 4 2 9 -3 9 -38
6 -896 3 -899 -3z"/>
<path d="M1695 1831 c-93 -82 -175 -157 -182 -168 -7 -10 -15 -36 -18 -58 -13
-90 -18 -101 -88 -172 -38 -40 -73 -70 -78 -68 -4 3 -13 -1 -21 -8 -14 -14
-51 -19 -42 -6 2 5 -8 15 -23 23 -15 8 -58 48 -94 88 -66 73 -66 75 -71 139
-3 52 -11 77 -37 120 -121 200 -344 302 -426 195 -28 -37 -30 -60 -11 -131 24
-91 92 -176 202 -255 45 -32 118 -48 179 -40 39 5 43 2 117 -69 43 -41 78 -82
78 -92 0 -10 7 -25 16 -34 20 -20 42 5 -286 -324 -135 -135 -258 -253 -275
-261 -36 -18 -45 -29 -45 -56 0 -30 58 -84 84 -79 12 2 24 4 28 4 4 1 13 12
20 25 20 37 551 586 567 586 16 0 539 -539 552 -568 17 -39 52 -51 88 -31 61
34 66 103 9 131 -18 9 -156 136 -305 283 -267 261 -272 267 -257 290 8 12 14
27 12 31 -1 5 30 40 69 78 70 66 74 69 135 76 35 4 74 12 88 17 14 6 56 48 95
94 38 46 77 91 85 99 8 8 40 44 70 80 30 36 59 68 65 72 5 4 7 9 5 12 -5 4
-59 -45 -237 -216 -51 -49 -93 -85 -93 -81 0 8 41 53 184 203 39 41 82 88 96
105 l25 29 -30 -23 c-16 -12 -73 -62 -125 -110 -166 -152 -187 -171 -194 -171
-4 0 17 24 46 54 269 272 295 308 55 76 -59 -58 -112 -107 -118 -109 -6 -1 0
8 13 21 81 83 265 283 277 301 12 18 -83 -62 -159 -133 -32 -30 -97 -88 -135
-121 -71 -62 -23 -6 119 139 124 126 157 163 144 162 -1 -1 -79 -68 -173 -149z"/>
<path d="M250 347 c0 -9 263 -12 1045 -11 600 1 1044 5 1043 10 -4 14 -2088
15 -2088 1z"/>
</g>
</svg>
