<?xml version="1.0" standalone="no"?>
<!DOCTYPE svg PUBLIC "-//W3C//DTD SVG 20010904//EN"
 "http://www.w3.org/TR/2001/REC-SVG-20010904/DTD/svg10.dtd">
<svg version="1.0" xmlns="http://www.w3.org/2000/svg"
 width="260.000000pt" height="260.000000pt" viewBox="0 0 260.000000 260.000000"
 preserveAspectRatio="xMidYMid meet">
<metadata>
Created by potrace 1.11, written by Peter Selinger 2001-2013
</metadata>
<g transform="translate(0.000000,260.000000) scale(0.100000,-0.100000)"
fill="#000000" stroke="none">
<path d="M1239 2261 c-39 -40 -39 -82 0 -122 53 -53 125 -25 138 54 5 31 1 40
-25 67 -39 39 -74 39 -113 1z m91 -21 c11 -11 20 -29 20 -40 0 -23 -33 -60
-55 -60 -22 0 -55 37 -55 60 0 23 33 60 55 60 8 0 24 -9 35 -20z"/>
<path d="M243 2205 c0 -13 57 -15 454 -15 396 0 453 2 453 15 0 13 -57 15
-453 15 -397 0 -454 -2 -454 -15z"/>
<path d="M1447 2213 c-4 -3 -7 -10 -7 -15 0 -4 205 -8 455 -8 398 0 455 2 455
15 0 13 -56 15 -448 15 -247 0 -452 -3 -455 -7z"/>
<path d="M1835 1952 c-17 -15 -96 -85 -177 -155 -81 -70 -149 -135 -152 -145
-3 -9 -7 -35 -11 -56 -3 -21 -8 -51 -11 -65 -7 -27 -142 -173 -155 -166 -4 3
-12 -2 -19 -10 -16 -19 -36 -19 -44 0 -3 8 -12 15 -19 15 -8 0 -48 37 -89 83
l-75 82 -5 67 c-6 76 -38 139 -111 218 -134 146 -310 182 -367 76 -19 -37 1
-134 43 -201 53 -85 174 -187 239 -201 12 -3 52 -5 88 -5 l66 1 71 -73 c40
-39 75 -84 78 -99 4 -15 13 -29 21 -32 19 -7 -539 -568 -583 -585 -45 -18 -46
-60 -2 -98 41 -37 77 -37 99 -1 19 32 112 131 375 399 l193 196 269 -271 c151
-151 276 -286 284 -304 17 -39 52 -51 88 -31 56 32 67 108 17 126 -27 9 -133
108 -403 376 -172 171 -181 181 -167 201 7 11 14 27 14 34 0 17 124 134 154
145 11 5 39 9 60 9 68 1 97 21 193 135 50 59 104 122 120 140 71 78 84 95 81
98 -3 3 -51 -40 -223 -204 -154 -147 -133 -116 59 89 39 42 87 93 106 115 32
35 32 37 6 17 -16 -12 -54 -46 -86 -75 -127 -117 -223 -202 -234 -206 -6 -2
61 69 149 158 178 180 197 202 111 121 -33 -30 -71 -66 -86 -80 -15 -14 -67
-63 -115 -110 -120 -116 -87 -72 70 95 134 142 187 205 124 150 -19 -17 -61
-55 -94 -85 -164 -149 -215 -193 -215 -187 0 7 45 55 183 194 66 68 118 125
116 127 -3 3 -18 -7 -34 -22z"/>
<path d="M254 357 c-8 -5 -12 -12 -9 -18 4 -5 412 -9 1054 -9 925 0 1048 2
1048 15 0 8 -10 15 -21 16 -142 5 -2061 2 -2072 -4z"/>
</g>
</svg>
