<?xml version="1.0" standalone="no"?>
<!DOCTYPE svg PUBLIC "-//W3C//DTD SVG 20010904//EN"
 "http://www.w3.org/TR/2001/REC-SVG-20010904/DTD/svg10.dtd">
<svg version="1.0" xmlns="http://www.w3.org/2000/svg"
 width="260.000000pt" height="260.000000pt" viewBox="0 0 260.000000 260.000000"
 preserveAspectRatio="xMidYMid meet">
<metadata>
Created by potrace 1.11, written by Peter Selinger 2001-2013
</metadata>
<g transform="translate(0.000000,260.000000) scale(0.100000,-0.100000)"
fill="#000000" stroke="none">
<path d="M1135 2539 c-449 -61 -836 -364 -1000 -784 -63 -160 -79 -250 -79
-445 0 -186 6 -231 54 -390 99 -325 364 -622 679 -761 258 -114 566 -137 841
-64 121 32 312 126 415 203 330 246 525 659 501 1057 -35 586 -435 1053 -1001
1170 -97 20 -314 27 -410 14z m371 -49 c229 -41 422 -133 590 -281 410 -361
531 -955 292 -1434 -124 -249 -298 -426 -538 -549 -186 -95 -334 -130 -550
-130 -216 0 -364 35 -550 130 -238 122 -409 295 -530 534 -220 437 -154 969
167 1331 287 325 705 474 1119 399z"/>
<path d="M1426 2442 c-3 -6 -1 -14 5 -17 15 -10 25 3 12 16 -7 7 -13 7 -17 1z"/>
<path d="M1197 2370 c-58 -46 -10 -131 64 -115 16 4 29 11 29 16 0 6 -8 6 -19
-1 -27 -14 -37 -13 -55 6 -19 18 -21 75 -4 92 16 16 50 15 67 0 11 -11 13 -10
9 2 -7 24 -60 24 -91 0z"/>
<path d="M1420 2315 c0 -37 4 -65 10 -65 6 0 10 22 10 49 0 27 3 56 6 65 4 11
1 16 -10 16 -13 0 -16 -12 -16 -65z"/>
<path d="M1026 2318 c9 -71 14 -88 25 -88 10 0 3 103 -8 123 -13 22 -23 2 -17
-35z"/>
<path d="M1587 2343 c-13 -45 -17 -94 -10 -106 5 -7 12 7 18 37 12 56 35 77
63 60 18 -12 19 -18 7 -76 -4 -23 -3 -38 3 -38 13 0 36 85 28 105 -8 21 -47
35 -68 23 -12 -5 -18 -5 -18 2 0 17 -18 11 -23 -7z"/>
<path d="M935 2291 c7 -27 16 -54 19 -60 12 -19 76 -10 76 10 0 6 -8 5 -19 -1
-27 -14 -49 10 -57 61 -4 22 -12 39 -19 39 -11 0 -11 -9 0 -49z"/>
<path d="M745 2288 c-48 -26 -59 -74 -25 -108 26 -26 72 -26 101 1 l24 21 -25
-16 c-13 -9 -32 -16 -41 -16 -19 0 -44 27 -53 57 -9 28 27 67 55 60 10 -3 19
-1 19 4 0 12 -31 11 -55 -3z"/>
<path d="M1860 2281 c26 -4 36 -12 38 -28 3 -19 -2 -23 -25 -24 -25 -2 -25 -2
-5 -6 17 -3 22 -9 17 -21 -15 -37 -16 -49 -3 -54 8 -4 14 1 15 11 1 9 7 35 14
58 16 53 2 74 -50 72 l-36 -2 35 -6z"/>
<path d="M1807 2223 c-22 -22 8 -64 45 -62 7 0 3 4 -9 9 -25 10 -30 29 -11 48
9 9 9 12 -3 12 -9 0 -19 -3 -22 -7z"/>
<path d="M930 1855 c0 -13 48 -15 370 -15 322 0 370 2 370 15 0 13 -48 15
-370 15 -322 0 -370 -2 -370 -15z"/>
<path d="M957 1641 c-72 -36 -167 -71 -197 -71 -17 0 -30 -5 -30 -10 0 -6 -8
-13 -17 -17 -10 -3 -67 -30 -128 -58 -116 -56 -178 -98 -207 -143 -25 -37 -23
-103 3 -135 21 -28 86 -51 113 -41 22 9 10 24 -15 19 -38 -7 -89 29 -89 63 0
4 38 6 85 4 47 -2 85 -4 85 -5 0 -1 -7 -24 -15 -51 -19 -64 -19 -120 1 -140
17 -17 69 -22 59 -6 -3 6 -13 10 -21 10 -31 0 -37 42 -14 102 12 32 29 67 39
80 17 21 21 21 46 8 21 -11 25 -19 19 -40 -6 -24 -8 -50 -5 -77 2 -21 51 -15
72 10 10 12 18 16 19 10 0 -7 10 -19 23 -28 36 -23 91 -3 123 45 26 40 44 44
44 12 1 -47 74 -85 113 -59 39 25 76 68 79 90 2 12 11 23 21 25 16 3 15 -2 -8
-48 -15 -29 -24 -58 -21 -66 12 -31 35 -10 70 66 21 44 49 88 62 99 29 23 83
46 90 38 3 -3 -6 -42 -20 -87 -20 -61 -24 -86 -16 -101 13 -24 41 -24 70 -1
22 18 23 18 46 -5 27 -27 44 -29 86 -7 22 11 33 13 41 5 19 -19 56 -12 73 14
l16 25 19 -24 c10 -13 30 -27 44 -30 31 -8 89 17 110 47 14 20 14 20 24 -5 5
-14 23 -31 40 -38 28 -11 36 -10 81 13 27 14 49 23 49 19 -4 -23 4 -32 29 -32
21 0 34 10 61 50 43 63 31 79 -17 22 -20 -23 -40 -42 -44 -42 -9 0 22 80 58
151 14 28 23 53 20 56 -3 3 6 19 20 36 29 34 28 61 -2 65 -24 3 -48 -39 -39
-68 3 -10 0 -20 -9 -23 -7 -3 -31 -47 -51 -97 -41 -99 -61 -120 -112 -120 -50
0 -63 35 -37 97 25 60 66 93 95 75 11 -7 24 -10 29 -7 19 12 10 45 -15 57 -49
22 -155 -55 -155 -114 0 -31 -32 -86 -57 -97 -99 -45 -129 51 -45 142 27 28
51 34 68 17 8 -8 14 -7 22 3 15 18 -12 57 -39 57 -55 0 -125 -68 -135 -132 -7
-38 -46 -98 -65 -98 -16 0 -10 20 32 113 29 64 37 93 29 101 -7 7 -16 7 -29
-1 -11 -7 -23 -8 -32 -2 -25 16 -75 10 -109 -13 -32 -23 -50 -49 -90 -140 -12
-25 -27 -49 -35 -52 -10 -3 -6 18 15 75 37 98 38 126 7 140 -18 8 -33 7 -62
-5 -46 -20 -45 -20 -45 0 0 33 -36 7 -59 -44 -30 -64 -58 -72 -53 -14 7 76
-55 97 -78 26 -10 -29 -9 -39 4 -59 18 -27 14 -46 -21 -92 -28 -39 -66 -44
-83 -12 -19 35 -2 96 42 147 23 26 36 48 29 50 -20 7 -59 -26 -86 -73 -15 -25
-29 -45 -31 -45 -2 0 -1 20 3 45 6 48 -7 75 -36 75 -12 0 0 17 35 54 64 66 94
122 94 175 0 30 -5 43 -19 51 -25 13 -20 13 -64 -9z m15 -112 c-20 -46 -68
-109 -83 -109 -4 0 4 21 20 48 73 124 102 152 63 61z m-92 -21 c-34 -64 -92
-195 -130 -295 -6 -17 -20 -39 -31 -49 -18 -16 -19 -16 -19 0 0 10 18 57 40
104 22 47 38 87 35 90 -2 3 7 18 21 35 29 34 28 61 -2 65 -16 2 -24 -5 -32
-28 -6 -17 -9 -37 -6 -45 4 -8 1 -15 -5 -15 -6 0 -24 -28 -41 -62 -16 -35 -29
-57 -29 -50 -1 7 -12 18 -26 24 l-25 11 19 31 c10 17 33 60 52 96 34 67 66
110 81 110 5 0 28 8 51 19 47 21 69 29 79 30 4 1 -10 -32 -32 -71z m-202 -35
c-2 -5 -23 -47 -48 -95 l-44 -88 -71 1 c-38 1 -83 4 -100 8 l-30 7 40 37 c22
21 85 60 140 87 99 49 120 57 113 43z m192 -129 c-15 -39 -12 -69 11 -97 15
-20 18 -31 10 -44 -28 -53 -93 -71 -99 -27 -5 32 65 194 83 194 2 0 0 -12 -5
-26z m50 -45 c0 -11 -4 -17 -10 -14 -5 3 -10 15 -10 26 0 11 5 17 10 14 6 -3
10 -15 10 -26z m663 13 c15 -16 14 -22 -16 -82 -24 -48 -40 -67 -64 -77 -30
-12 -33 -11 -44 8 -17 33 -2 86 38 130 39 43 61 48 86 21z"/>
<path d="M930 835 c0 -13 48 -15 370 -15 322 0 370 2 370 15 0 13 -48 15 -370
15 -322 0 -370 -2 -370 -15z"/>
<path d="M598 477 c-42 -81 -44 -87 -25 -87 16 1 90 160 74 160 -7 0 -29 -33
-49 -73z"/>
<path d="M1908 476 c-26 -19 -22 -30 3 -12 23 15 49 11 49 -8 0 -6 -14 -24
-31 -39 -32 -28 -34 -44 -6 -61 12 -8 23 -5 46 12 17 12 35 22 41 22 12 0 -27
81 -44 92 -17 11 -39 9 -58 -6z m70 -77 c-3 -27 -36 -38 -49 -18 -5 9 0 22 13
36 25 26 41 18 36 -18z"/>
<path d="M752 455 c-7 -8 -11 -18 -10 -22 2 -4 -3 -27 -11 -50 -11 -34 -12
-45 -1 -58 7 -8 18 -15 24 -15 6 0 5 4 -3 9 -22 14 3 89 32 101 12 5 16 9 8 9
-8 1 -11 8 -8 21 6 23 -12 26 -31 5z"/>
<path d="M1126 340 c-3 -44 -9 -86 -12 -95 -4 -9 -1 -15 8 -15 11 0 17 24 24
95 6 68 6 95 -2 95 -7 0 -14 -32 -18 -80z"/>
<path d="M1698 397 c-7 -8 -20 -12 -29 -10 -16 5 -16 1 -2 -56 9 -34 19 -61
24 -61 11 0 11 17 0 57 -6 22 -6 37 3 48 21 28 50 14 66 -33 8 -23 20 -42 26
-42 15 0 -10 90 -29 102 -19 12 -45 9 -59 -5z"/>
<path d="M1280 390 c0 -5 7 -10 15 -10 8 0 15 5 15 10 0 6 -7 10 -15 10 -8 0
-15 -4 -15 -10z"/>
<path d="M906 381 c-3 -4 5 -6 17 -4 26 5 56 -22 41 -37 -5 -5 -27 -10 -49
-12 -35 -3 -40 -6 -40 -28 0 -17 6 -26 20 -29 17 -3 17 -1 6 12 -18 22 -6 37
30 37 30 0 40 -22 17 -36 -7 -5 -5 -11 7 -21 23 -16 44 -18 28 -2 -7 7 -8 21
-2 42 12 44 11 53 -7 71 -17 17 -59 22 -68 7z"/>
<path d="M1449 343 c-13 -15 -12 -15 9 -4 13 7 30 10 38 7 25 -10 15 -35 -20
-50 -41 -17 -52 -32 -36 -51 14 -17 56 -20 65 -5 3 6 18 7 33 4 15 -3 22 -2
16 3 -6 4 -14 26 -18 48 -4 22 -12 46 -18 53 -15 17 -53 15 -69 -5z m71 -62
c0 -24 -25 -45 -45 -37 -22 8 -18 35 8 46 33 13 37 12 37 -9z"/>
<path d="M1283 280 c-2 -43 2 -60 11 -60 8 0 12 18 12 60 -1 79 -21 79 -23 0z"/>
</g>
</svg>
